<?xml version="1.0" standalone="no"?>
<!DOCTYPE svg PUBLIC "-//W3C//DTD SVG 20010904//EN"
 "http://www.w3.org/TR/2001/REC-SVG-20010904/DTD/svg10.dtd">
<svg version="1.0" xmlns="http://www.w3.org/2000/svg"
 width="96.000000pt" height="96.000000pt" viewBox="0 0 96.000000 96.000000"
 preserveAspectRatio="xMidYMid meet">

<g transform="translate(0.000000,96.000000) scale(0.100000,-0.100000)"
fill="#fabafa" stroke="none">
<path d="M163 758 c-47 -12 -83 -54 -82 -97 l0 -36 15 36 15 36 77 -1 77 -1
17 -35 17 -35 1 34 c1 76 -60 119 -137 99z"/>
<path d="M743 758 c-47 -12 -83 -54 -82 -97 l0 -36 15 36 15 36 77 -1 77 -1
17 -35 17 -35 1 34 c1 76 -60 119 -137 99z"/>
<path d="M415 715 c-22 -14 -46 -32 -52 -42 -15 -20 -17 -69 -3 -78 6 -3 10 3
10 14 0 12 9 30 19 40 17 17 25 18 55 10 23 -6 48 -7 71 0 41 11 62 -4 72 -51
4 -21 8 -26 14 -16 16 24 9 66 -15 95 -12 15 -21 34 -19 41 3 9 -11 12 -54 12
-44 -1 -68 -7 -98 -25z"/>
<path d="M84 454 c-64 -31 -79 -58 -79 -137 l0 -72 126 -3 127 -3 6 35 c8 43
37 80 76 96 37 15 35 25 -11 61 -44 35 -89 48 -89 25 0 -25 -45 -42 -75 -28
-14 6 -25 18 -25 27 0 19 -16 19 -56 -1z"/>
<path d="M664 454 c-18 -9 -43 -27 -55 -41 -20 -21 -21 -27 -9 -31 19 -7 90
-77 90 -89 0 -5 -93 -37 -207 -70 -115 -33 -208 -64 -208 -69 0 -14 394 -17
411 -3 8 6 14 29 14 50 l0 38 128 3 127 3 3 56 c2 30 -2 67 -7 81 -19 50 -131
113 -131 74 0 -25 -45 -42 -75 -28 -14 6 -25 18 -25 27 0 19 -16 19 -56 -1z"/>
</g>
</svg>
